#N canvas 434 47 640 692 10;
#N canvas 0 22 450 300 (subpatch) 0;
#X array array99 5 float 0;
#X array array98 7 float 0;
#X coords 0 1 6 -1 150 90 1;
#X restore 211 484 graph;
#X msg 22 182 \; array99 rename george;
#X msg 196 182 \; george rename array99;
#X msg 247 128 \; array99 3 -0.5 0.5;
#X text 22 162 renaming an array:;
#X text 21 219 setting the bounds rectangle:;
#X msg 23 239 \; array99 bounds 0 -2 10 2;
#X msg 210 239 \; array99 bounds 0 -1 5 1;
#X msg 23 315 \; array99 xticks 0 1 1;
#X msg 176 314 \; array99 yticks 0 0.1 5;
#X text 20 273 adding x and y labels: give a point to put a tick \,
the interval between ticks \, and the number of ticks overall per large
tick.;
#X msg 19 382 \; array99 xlabel -1.1 0 1 2 3 4 5;
#X text 16 351 adding labels. Give a y value and a bunch of x values
or vice versa:;
#X msg 22 128 \; array98 0 -1 1 -1 1 -1 1 -1 1 -1;
#X msg 239 382 \; array99 ylabel 5.15 -1 0 1;
#X text 19 31 Arrays have methods to set their values explicitly \;
to set their "bounds" rectangles \, to rename them (but if you have
two with the same name this won't necessarily do what you want) and
to add markings. To set values by message \, send a list whise first
element gives the index to start at. The second example sets two values
starting at index three. Indices count up from zero.;
#X text 17 417 You can also change x and y range and size in the "properties"
dialog. Note that information about size and ranges is saved \, but
ticks \, labels \, and the actual data are lost between Pd sessions.
;
