#N canvas 425 107 764 573 10;
#X floatatom 93 94 0 0 0 0 - - -;
#X floatatom 57 94 0 0 0 0 - - -;
#X obj 21 67 notein;
#X floatatom 21 93 0 0 0 0 - - -;
#X floatatom 213 96 0 0 0 0 - - -;
#X floatatom 177 96 0 0 0 0 - - -;
#X floatatom 141 95 0 0 0 0 - - -;
#X obj 141 69 ctlin;
#X floatatom 304 95 0 0 0 0 - - -;
#X floatatom 268 94 0 0 0 0 - - -;
#X obj 268 68 bendin;
#X floatatom 314 133 0 0 0 0 - - -;
#X floatatom 270 132 0 0 0 0 - - -;
#X obj 270 162 bendout;
#X text 19 38 Pd offers input and output objects for MIDI:;
#X text 329 162 ... ad nauseam.;
#X obj 21 260 midiout;
#X obj 174 295 sysexin;
#X msg 21 230 240 \, 45 \, 93 \, 3 \, 65 \, 1 \, 2 \, 3 \, 4 \, 247
;
#X text 18 202 You can format your own SYSEX messages as shown:;
#X text 18 293 and receive SYSEX via:;
#X connect 2 0 3 0;
#X connect 2 1 1 0;
#X connect 2 2 0 0;
#X connect 7 0 6 0;
#X connect 7 1 5 0;
#X connect 7 2 4 0;
#X connect 10 0 9 0;
#X connect 10 1 8 0;
#X connect 11 0 13 1;
#X connect 12 0 13 0;
#X connect 18 0 16 0;
