#N canvas 434 160 709 659 10;
#X obj 22 112 random 5;
#X msg 22 86 bang;
#X floatatom 22 138 0 0 0 0 - - -;
#X text 56 138 outputs from 0 to 4;
#X msg 207 86 bang;
#X floatatom 207 164 0 0 0 0 - - -;
#X obj 207 112 random 1000;
#X obj 207 140 / 1000;
#X text 235 165 from 0 to 0.999;
#X obj 21 319 random 5;
#X msg 92 232 bang;
#X floatatom 21 345 0 0 0 0 - - -;
#X obj 21 232 loadbang;
#X obj 21 262 timer;
#X text 134 232 <-- click to seed;
#X msg 21 287 seed \$1;
#X msg 83 287 bang;
#X text 124 288 <-- click to get random numbers;
#X text 18 191 If you don't want the same behavior every time you run
the patch \, use the time from load to first click as a seed:;
#X text 19 37 Use the [random] object to make pseudo-random integers.
To get continuously variable random numbers \, make a random number
in a large range and divide:;
#X connect 0 0 2 0;
#X connect 1 0 0 0;
#X connect 4 0 6 0;
#X connect 6 0 7 0;
#X connect 7 0 5 0;
#X connect 9 0 11 0;
#X connect 10 0 13 1;
#X connect 12 0 13 0;
#X connect 13 0 15 0;
#X connect 15 0 9 0;
#X connect 16 0 9 0;
