#N canvas 434 124 669 682 10;
#X floatatom 97 297 5 0 0 0 - - -;
#X obj 118 217 f;
#X obj 87 275 random 4;
#X obj 25 275 random 2;
#X floatatom 34 297 5 0 0 0 - - -;
#X obj 118 242 t b b f;
#X obj 25 329 sel 0 1;
#X obj 142 409 +;
#X obj 118 163 metro 100;
#X obj 118 141 tgl 15 0 empty empty empty 0 -6 0 8 -262144 -1 -1 0
1;
#X obj 87 329 + 1;
#X floatatom 224 191 5 0 0 0 - - -;
#X obj 72 387 *;
#X msg 25 354 -1;
#X obj 224 94 moses 0;
#X obj 263 118 moses 100;
#X obj 224 118 * -1;
#X obj 314 141 * -1;
#X obj 314 163 + 200;
#X msg 55 354 1;
#X text 19 37 Random walk generator;
#X text 138 140 on/off;
#X text 260 190 output;
#X text 34 312 sign;
#X text 96 312 magnitude;
#X text 174 401 add prev value;
#X text 174 414 to random increment;
#X text 222 51 coercion to range 0-100 \; if out of range \, reflect
;
#X text 222 74 us back in.;
#X connect 1 0 5 0;
#X connect 2 0 0 0;
#X connect 2 0 10 0;
#X connect 3 0 4 0;
#X connect 3 0 6 0;
#X connect 5 0 3 0;
#X connect 5 1 2 0;
#X connect 5 2 7 1;
#X connect 6 0 13 0;
#X connect 6 1 19 0;
#X connect 7 0 14 0;
#X connect 8 0 1 0;
#X connect 9 0 8 0;
#X connect 10 0 12 1;
#X connect 11 0 1 1;
#X connect 12 0 7 0;
#X connect 13 0 12 0;
#X connect 14 0 16 0;
#X connect 14 1 15 0;
#X connect 15 0 11 0;
#X connect 15 1 17 0;
#X connect 16 0 11 0;
#X connect 17 0 18 0;
#X connect 18 0 11 0;
#X connect 19 0 12 0;
