#N canvas 434 157 814 643 10;
#X obj 115 131 r receive1;
#X obj 201 131 r receive2;
#X msg 22 85 clear \, add receive1 1 \, add 1000 receive1 0 \, add
receive2 2 \, add 1000 receive2 0 \, add receive1 3 \, bang;
#X obj 22 125 qlist;
#X floatatom 115 156 0 0 0 0 - - -;
#X floatatom 201 156 0 0 0 0 - - -;
#X text 19 37 You can use [qlist] or [textfile] objects for sequencing.
[qlist] is simpler to use than the (more versatile) [textfile].;
#X connect 0 0 4 0;
#X connect 1 0 5 0;
#X connect 2 0 3 0;
