#N canvas 413 76 894 817 10;
#X msg 37 248 bang;
#X obj 81 303 + 1;
#X floatatom 179 124 0 0 0 0 - - -;
#X msg 132 74 bang;
#X obj 179 99 + 1;
#X text 34 224 Here's a timed counter. Hit the "bang" to start it...
;
#X obj 37 277 metro 500;
#X msg 83 248 stop;
#X obj 132 99 float;
#X obj 37 303 float;
#X text 113 277 <-- new object: [metro] \, which is a metronome. The
"500" means it outputs a bang every 500 milliseconds-- i.e. \, twice
a second.;
#X text 26 37 Here's a simple counter. Click repeatedly on the "bang"
message to see it work:;
#X connect 0 0 6 0;
#X connect 1 0 9 1;
#X connect 3 0 8 0;
#X connect 4 0 2 0;
#X connect 4 0 8 1;
#X connect 6 0 9 0;
#X connect 7 0 6 0;
#X connect 8 0 4 0;
#X connect 9 0 1 0;
