#N canvas 393 60 744 651 10;
#X floatatom 127 209 0 0 0 0 - - -;
#X obj 127 183 + 1;
#X msg 127 79 bang;
#X obj 127 131 metro 500;
#X msg 38 137 stop;
#X obj 127 157 float;
#X obj 127 105 trigger bang bang;
#X msg 226 131 0;
#X obj 38 111 select 10;
#X text 255 131 first set value to zero;
#X text 244 105 initialization is in two steps;
#X text 225 150 (before starting the metronome);
#X text 15 162 conditionally;
#X text 15 179 stop the;
#X text 16 193 metronome;
#X text 19 37 Here's a counter that counts from 1 to 10:;
#X text 164 79 <-- click here to start;
#X connect 1 0 0 0;
#X connect 1 0 5 1;
#X connect 1 0 8 0;
#X connect 2 0 6 0;
#X connect 3 0 5 0;
#X connect 4 0 3 0;
#X connect 5 0 1 0;
#X connect 6 0 3 0;
#X connect 6 1 7 0;
#X connect 7 0 5 1;
#X connect 8 0 4 0;
