#N canvas 400 37 728 674 10;
#X msg 64 81 1;
#X obj 81 176 + 1;
#X obj 163 217 print x1;
#X obj 64 229 print x3;
#X obj 98 152 print x2;
#X obj 163 145 + 1;
#X obj 163 169 + 1;
#X obj 163 193 + 1;
#X obj 64 110 t f f f f;
#X obj 81 200 print x2;
#X text 19 37 In Pd \, message passing is depth first \, so that in
this patch:;
#X text 104 81 <-- click here;
#X msg 102 304 1;
#X text 142 304 <-- maybe you shouldn't click here;
#X obj 141 334 + 1;
#X obj 102 333 f;
#X floatatom 102 365 0 0 0 0 - - -;
#X text 19 395 ... because the "depth" is infinite. The counters you've
seen always have the message chain terminated somewhere in a cold inlet:
;
#X msg 105 448 1;
#X obj 144 476 + 1;
#X obj 105 475 f;
#X floatatom 105 503 0 0 0 0 - - -;
#X text 145 448 <-- better;
#X text 19 257 ... you get "x1" first \, notwithstanding the fact that
"x2" and "x3" appear to be closer to the source. This means that you
shouldn't do this:;
#X connect 0 0 8 0;
#X connect 1 0 9 0;
#X connect 5 0 6 0;
#X connect 6 0 7 0;
#X connect 7 0 2 0;
#X connect 8 0 3 0;
#X connect 8 1 1 0;
#X connect 8 2 4 0;
#X connect 8 3 5 0;
#X connect 12 0 15 0;
#X connect 14 0 15 0;
#X connect 15 0 16 0;
#X connect 15 0 14 0;
#X connect 18 0 20 0;
#X connect 19 0 20 1;
#X connect 20 0 21 0;
#X connect 20 0 19 0;
