#N canvas 0 0 450 300 10;
#X obj 100 50 metro 500;
#X obj 100 100 bang;
#X obj 100 150 + 1;
#X obj 100 200 f;
#X obj 100 250 < 10;
#X obj 100 300 t b b;
#X obj 100 350 f;
#X obj 250 50 tgl;
#X obj 250 100 bng;
#X obj 250 150 bng;
#X obj 250 200 t b b;
#X obj 250 250 0;
#X obj 350 200 print;
#X connect 0 0 1 0;
#X connect 1 0 2 0;
#X connect 2 0 3 0;
#X connect 3 0 4 0;
#X connect 4 0 5 0;
#X connect 5 0 0 0;
#X connect 5 1 6 0;
#X connect 6 0 3 0;
#X connect 7 0 10 0;
#X connect 10 0 0 0;
#X connect 8 0 9 0;
#X connect 9 0 6 0;
#X connect 10 1 6 0;
#X connect 11 0 6 0;
#X connect 3 0 12 0;
